# xmcd
#
# Track frame offsets:
#	150
#	22250
#	47787
#	72482
#	99707
#
# Disc length: 1646 seconds
#
# Revision: 0
# Processed by: cddbd v1.4PL0 Copyright (c) Steve Scherf et al.
# Submitted via: EasyCDDAExtractor 5.0.4.1
#
DISCID=47066c05
DTITLE=Miu Sakamoto - Aquascape 1
DYEAR=1900
DGENRE=
TTITLE0=Internal
TTITLE1=Eternal
TTITLE2=Awakening
TTITLE3=The Eighth Colour
TTITLE4=Awakening-Endo Mix
EXTD=
EXTT0=
EXTT1=
EXTT2=
EXTT3=
EXTT4=
PLAYORDER=
